<svg xmlns="http://www.w3.org/2000/svg" viewBox="0 0 270 120" width="108" height="48" role="img" aria-label="ChatGPT">
  <rect x="3" y="3" width="264" height="114" rx="26" fill="#242938" stroke="#00D9FF" stroke-opacity="0.4" stroke-width="2.5"/>
  <g transform="translate(26,32) scale(2.3333)">
    <path d="M20 2H4c-1.1 0-2 .9-2 2v18l4-4h14c1.1 0 2-.9 2-2V4c0-1.1-.9-2-2-2zm0 14H5.17L4 17.17V4h16v12zM12 5.2l1.15 2.65L15.8 9l-2.65 1.15L12 12.8l-1.15-2.65L8.2 9l2.65-1.15z" fill="#00D9FF"/>
  </g>
  <text x="98" y="61" dominant-baseline="central" textLength="146" lengthAdjust="spacingAndGlyphs" font-family="'Segoe UI', Ubuntu, Helvetica, Arial, sans-serif" font-weight="600" font-size="34" fill="#D6F6FF">ChatGPT</text>
</svg>
