<svg xmlns="http://www.w3.org/2000/svg" viewBox="0 0 186 120" width="74" height="48" role="img" aria-label="SQL">
  <rect x="3" y="3" width="180" height="114" rx="26" fill="#242938" stroke="#00D9FF" stroke-opacity="0.4" stroke-width="2.5"/>
  <g transform="translate(26,32) scale(2.3333)">
    <path d="M12 3C7.58 3 4 4.79 4 7s3.58 4 8 4 8-1.79 8-4-3.58-4-8-4zM4 9v3c0 2.21 3.58 4 8 4s8-1.79 8-4V9c0 2.21-3.58 4-8 4s-8-1.79-8-4zm0 5v3c0 2.21 3.58 4 8 4s8-1.79 8-4v-3c0 2.21-3.58 4-8 4s-8-1.79-8-4z" fill="#00D9FF"/>
  </g>
  <text x="98" y="61" dominant-baseline="central" textLength="62" lengthAdjust="spacingAndGlyphs" font-family="'Segoe UI', Ubuntu, Helvetica, Arial, sans-serif" font-weight="600" font-size="34" fill="#D6F6FF">SQL</text>
</svg>
